<?xml version="1.0" encoding="utf-8"?><svg xmlns="http://www.w3.org/2000/svg" xmlns:xlink="http://www.w3.org/1999/xlink"><symbol viewBox="0 0 23 32" id="DOC" xmlns="http://www.w3.org/2000/svg"><path d="M15.42 0H2.398A2.374 2.374 0 0 0 .031 2.368v27.226a2.374 2.374 0 0 0 2.367 2.367h17.757a2.375 2.375 0 0 0 2.367-2.367V8.286L15.42 0zm0 1.776l5.563 6.51h-4.38c-.591 0-1.183-.592-1.183-1.183V1.776zm5.918 27.818c0 .592-.473 1.184-1.183 1.184H2.398c-.591 0-1.183-.474-1.183-1.184V2.368c0-.592.473-1.184 1.183-1.184h11.838v5.919a2.374 2.374 0 0 0 2.367 2.367h4.735v20.124z"/></symbol><symbol viewBox="0 0 24 32" id="PDF" xmlns="http://www.w3.org/2000/svg"><path d="M11.17 24.084a3.59 3.59 0 0 0-.778.068v4.978c.147.034.384.034.598.034 1.557.011 2.574-.846 2.574-2.664.01-1.58-.915-2.416-2.394-2.416zm-6.65-.022c-.35 0-.586.033-.71.067v2.247c.146.034.327.045.574.045.915 0 1.48-.463 1.48-1.242 0-.7-.486-1.117-1.344-1.117z"/><path d="M23.236 7.666a.62.62 0 0 0-.15-.407L16.92.215 16.914.21a.627.627 0 0 0-.124-.105l-.042-.024a.643.643 0 0 0-.124-.052l-.033-.011A.611.611 0 0 0 16.447 0H1.29C.598 0 .035.563.035 1.255v29.479c0 .692.563 1.255 1.254 1.255h20.699c.691 0 1.254-.563 1.254-1.255V7.736c0-.024-.004-.047-.006-.07zM6.868 26.94c-.587.553-1.456.802-2.472.802-.226 0-.43-.012-.587-.034v2.72H2.105v-7.507c.53-.09 1.275-.158 2.325-.158 1.061 0 1.818.204 2.326.61.485.384.812 1.016.812 1.76 0 .746-.248 1.378-.7 1.807zm7.26 2.585c-.801.666-2.02.982-3.51.982-.892 0-1.524-.056-1.954-.112V22.92c.632-.1 1.457-.158 2.326-.158 1.444 0 2.381.26 3.115.813.79.587 1.288 1.524 1.288 2.867-.001 1.457-.531 2.461-1.266 3.082zm7.045-5.294h-2.924v1.738h2.732v1.4h-2.732v3.06h-1.727V22.82h4.651v1.41zM1.289 21.3V1.255H15.82v6.418c0 .346.28.627.627.627h5.54l.001 13H1.29z"/><path d="M18.074 13.482a26.435 26.435 0 0 0-2.278-.085c-.425 0-.853.009-1.276.025a67.641 67.641 0 0 1-6.048-5.15c.021-.125.036-.223.043-.298.155-1.636-.017-2.74-.51-3.283-.323-.354-.797-.472-1.292-.337-.307.08-.875.378-1.057.985-.2.67.122 1.483.97 2.426.014.014.302.316.825.827-.34 1.62-1.23 5.119-1.662 6.799-1.014.542-1.859 1.195-2.513 1.943l-.043.05-.028.058c-.067.142-.39.876-.147 1.467.11.268.317.464.598.567l.075.02s.068.015.188.015c.523 0 1.815-.275 2.507-2.828l.168-.647c2.419-1.175 5.441-1.555 7.632-1.66a51.459 51.459 0 0 0 3.336 2.283l.035.02c.053.028.53.263 1.087.263.798 0 1.38-.489 1.597-1.342l.011-.058c.06-.488-.062-.927-.354-1.27-.615-.724-1.761-.787-1.864-.79zM3.938 18.57a.058.058 0 0 1-.01-.018c-.051-.125.011-.429.103-.652a7.385 7.385 0 0 1 1.414-1.21c-.532 1.722-1.306 1.871-1.507 1.88zM7.317 7.126c-.817-.91-.805-1.36-.761-1.513.072-.253.397-.35.4-.35.164-.045.264-.036.352.061.2.22.373.885.305 2.104-.193-.194-.296-.302-.296-.302zm-.423 7.745l.015-.053h-.002c.409-1.602.999-3.949 1.338-5.456l.012.012.002-.008a69.447 69.447 0 0 0 4.796 4.118l-.023.001.033.026c-1.898.16-4.166.534-6.17 1.36zm12.468.526c-.145.531-.423.604-.678.604a1.69 1.69 0 0 1-.645-.153c-.74-.464-1.497-.97-2.261-1.51h.018c1.31 0 2.182.08 2.216.082.22.008.911.11 1.21.461.116.138.161.302.14.516z"/></symbol><symbol viewBox="0 0 24 32" id="ZIP" xmlns="http://www.w3.org/2000/svg"><path d="M23.236 7.666a.62.62 0 0 0-.15-.407L16.92.215 16.914.21a.627.627 0 0 0-.289-.181l-.034-.011A.616.616 0 0 0 16.447 0H1.29C.598 0 .035.563.035 1.255v29.479c0 .692.563 1.255 1.254 1.255h20.699c.692 0 1.254-.563 1.254-1.255V7.736c0-.024-.004-.047-.006-.07zM9.792 30.403H3.877v-.926L7.5 24.262v-.046H4.215v-1.422h5.52v.994l-3.544 5.148v.044h3.6v1.423zm2.812 0h-1.728v-7.609h1.728v7.609zm6.254-3.488c-.587.553-1.456.801-2.472.801a4.24 4.24 0 0 1-.587-.034v2.721h-1.705v-7.507c.53-.09 1.275-.158 2.325-.158 1.062 0 1.818.203 2.326.61.485.383.813 1.015.813 1.76 0 .745-.249 1.378-.7 1.807zM1.289 21.3V1.255h7.502v-.198h1.902v.198h5.127v6.418c0 .346.28.627.627.627h5.54l.001 13H1.29z"/><path d="M16.51 24.036c-.35 0-.588.034-.711.068v2.246c.146.034.327.046.575.046.914 0 1.48-.464 1.48-1.242 0-.7-.487-1.118-1.344-1.118zM10.693 2.318h1.902v1h-1.902zM8.791 1.255h1.902v1H8.791zm0 2.238h1.902v1H8.791zm1.902 1.285h1.902v1h-1.902zm0 2.481h1.902v1h-1.902zM8.791 5.998h1.902v1H8.791zm1.902 2.687c-1.347 0-1.987 1.09-1.987 2.438l-.451 4.086a2.439 2.439 0 1 0 4.876 0l-.45-4.086c0-1.347-.64-2.438-1.988-2.438zm.808 7.892H9.887v-3.41h1.614v3.41z"/></symbol><symbol viewBox="0 0 32 26" id="align-left" xmlns="http://www.w3.org/2000/svg"><path d="M32 21.714V24c0 .31-.113.577-.34.804a1.095 1.095 0 0 1-.803.339H1.143c-.31 0-.578-.113-.804-.34A1.098 1.098 0 0 1 0 24v-2.286c0-.31.113-.577.34-.803.225-.226.493-.34.803-.34h29.714c.31 0 .578.114.804.34.226.226.339.494.339.803zm-6.857-6.857v2.286c0 .31-.113.577-.34.803-.226.227-.493.34-.803.34H1.143c-.31 0-.578-.113-.804-.34A1.098 1.098 0 0 1 0 17.143v-2.286c0-.31.113-.577.34-.803.225-.227.493-.34.803-.34H24c.31 0 .577.113.804.34.226.226.339.494.339.803zM29.714 8v2.286c0 .31-.113.577-.339.803a1.1 1.1 0 0 1-.804.34H1.143a1.1 1.1 0 0 1-.804-.34A1.098 1.098 0 0 1 0 10.286V8c0-.31.113-.577.34-.804.225-.226.493-.339.803-.339H28.57c.31 0 .578.113.804.34.226.226.34.493.34.803zm-6.857-6.857v2.286c0 .31-.113.577-.34.803-.225.226-.493.34-.803.34H1.143a1.1 1.1 0 0 1-.804-.34A1.098 1.098 0 0 1 0 3.43V1.143C0 .833.113.565.34.339.564.113.832 0 1.142 0h20.571c.31 0 .578.113.804.34.226.225.34.493.34.803z"/></symbol><symbol viewBox="0 0 32 31" id="angle-double-down" xmlns="http://www.w3.org/2000/svg"><path d="M32 14.974c0 .278-.107.524-.32.737L16.736 30.653c-.213.214-.46.32-.737.32a1.01 1.01 0 0 1-.737-.32L.32 15.711a1.014 1.014 0 0 1-.32-.737c0-.278.107-.524.32-.738l1.604-1.603c.214-.213.46-.32.737-.32.278 0 .524.107.738.32L16 25.234l12.601-12.6c.214-.214.46-.321.738-.321.278 0 .523.107.737.32l1.603 1.603c.214.214.321.46.321.738zM32 2.66c0 .278-.107.524-.32.738L16.736 18.34c-.213.213-.46.32-.737.32-.278 0-.524-.107-.737-.32L.32 3.399A1.014 1.014 0 0 1 0 2.66c0-.278.107-.523.32-.737L1.925.32C2.138.107 2.384 0 2.66 0c.278 0 .524.107.738.32L16 12.923 28.601.32c.214-.214.46-.321.738-.321.278 0 .523.107.737.32l1.603 1.604c.214.214.321.46.321.737z"/></symbol><symbol viewBox="0 0 31 32" id="angle-double-left" xmlns="http://www.w3.org/2000/svg"><path d="M18.661 29.339c0 .278-.107.523-.32.737l-1.604 1.603c-.213.214-.46.321-.737.321-.278 0-.524-.107-.737-.32L.32 16.736A1.014 1.014 0 0 1 0 16c0-.278.107-.524.32-.737L15.264.32C15.476.107 15.723 0 16 0c.278 0 .524.107.737.32l1.604 1.604c.213.214.32.46.32.737 0 .278-.107.524-.32.738L5.739 16l12.602 12.601c.213.214.32.46.32.738zm12.313 0c0 .278-.107.523-.32.737L29.05 31.68c-.214.214-.46.321-.737.321-.278 0-.524-.107-.738-.32L12.633 16.736a1.014 1.014 0 0 1-.32-.737c0-.278.107-.524.32-.737L27.575.32c.214-.214.46-.321.738-.321.278 0 .523.107.737.32l1.603 1.604c.214.214.32.46.32.737 0 .278-.106.524-.32.738L18.053 16l12.6 12.601c.214.214.32.46.32.738z"/></symbol><symbol viewBox="0 0 31 32" id="angle-double-right" xmlns="http://www.w3.org/2000/svg"><path d="M18.661 16c0 .278-.107.524-.32.737L3.399 31.68c-.214.214-.46.321-.738.321-.278 0-.523-.107-.737-.32L.32 30.075A1.014 1.014 0 0 1 0 29.34c0-.278.107-.524.32-.738L12.923 16 .32 3.399A1.014 1.014 0 0 1 0 2.66c0-.278.107-.523.32-.737L1.925.32C2.138.107 2.384 0 2.66 0c.278 0 .524.107.738.32L18.34 15.264c.213.213.32.46.32.737zm12.313 0c0 .278-.107.524-.32.737L15.71 31.68c-.213.214-.46.321-.737.321-.278 0-.524-.107-.738-.32l-1.603-1.604a1.014 1.014 0 0 1-.32-.737c0-.278.107-.524.32-.738L25.234 16l-12.6-12.601a1.014 1.014 0 0 1-.321-.738c0-.278.107-.523.32-.737L14.236.32c.214-.214.46-.321.738-.321.278 0 .524.107.737.32l14.942 14.943c.214.213.32.46.32.737z"/></symbol><symbol viewBox="0 0 32 31" id="angle-double-up" xmlns="http://www.w3.org/2000/svg"><path d="M32 28.313c0 .278-.107.523-.32.737l-1.604 1.603c-.214.214-.46.32-.737.32-.278 0-.524-.106-.738-.32L16 18.053l-12.601 12.6c-.214.214-.46.32-.738.32-.278 0-.523-.106-.737-.32L.32 29.05a1.014 1.014 0 0 1-.32-.737c0-.278.107-.524.32-.738l14.943-14.942c.213-.213.46-.32.737-.32.278 0 .524.107.737.32L31.68 27.575c.214.214.321.46.321.738zM32 16c0 .278-.107.524-.32.737l-1.604 1.604c-.214.213-.46.32-.737.32-.278 0-.524-.107-.738-.32L16 5.739 3.399 18.341c-.214.213-.46.32-.738.32-.278 0-.523-.107-.737-.32L.32 16.737A1.014 1.014 0 0 1 0 16c0-.278.107-.524.32-.737L15.264.32C15.476.107 15.723 0 16 0c.278 0 .524.107.737.32L31.68 15.264c.214.213.321.46.321.737z"/></symbol><symbol viewBox="0 0 32 19" id="angle-down" xmlns="http://www.w3.org/2000/svg"><path d="M32 2.661c0 .278-.107.524-.32.738L16.736 18.34c-.213.213-.46.32-.737.32-.278 0-.524-.107-.737-.32L.32 3.399A1.014 1.014 0 0 1 0 2.66c0-.278.107-.523.32-.737L1.925.32C2.138.107 2.384 0 2.66 0c.278 0 .524.107.738.32L16 12.923 28.601.32c.214-.214.46-.321.738-.321.278 0 .523.107.737.32l1.603 1.604c.214.214.321.46.321.737z"/></symbol><symbol viewBox="0 0 19 32" id="angle-left" xmlns="http://www.w3.org/2000/svg"><path d="M18.661 2.661c0 .278-.107.524-.32.738L5.739 16l12.602 12.601c.213.214.32.46.32.738 0 .278-.107.523-.32.737l-1.604 1.603c-.213.214-.46.321-.737.321-.278 0-.524-.107-.737-.32L.32 16.736A1.014 1.014 0 0 1 0 16c0-.278.107-.524.32-.737L15.264.32C15.476.107 15.723 0 16 0c.278 0 .524.107.737.32l1.604 1.604c.213.214.32.46.32.737z"/></symbol><symbol viewBox="0 0 19 32" id="angle-right" xmlns="http://www.w3.org/2000/svg"><path d="M18.661 16c0 .278-.107.524-.32.737L3.399 31.68c-.214.214-.46.321-.738.321-.278 0-.523-.107-.737-.32L.32 30.075A1.014 1.014 0 0 1 0 29.34c0-.278.107-.524.32-.738L12.923 16 .32 3.399A1.014 1.014 0 0 1 0 2.66c0-.278.107-.523.32-.737L1.925.32C2.138.107 2.384 0 2.66 0c.278 0 .524.107.738.32L18.34 15.264c.213.213.32.46.32.737z"/></symbol><symbol viewBox="0 0 32 19" id="angle-up" xmlns="http://www.w3.org/2000/svg"><path d="M32 16c0 .278-.107.524-.32.737l-1.604 1.604c-.214.213-.46.32-.737.32-.278 0-.524-.107-.738-.32L16 5.739 3.399 18.341c-.214.213-.46.32-.738.32-.278 0-.523-.107-.737-.32L.32 16.737A1.014 1.014 0 0 1 0 16c0-.278.107-.524.32-.737L15.264.32C15.476.107 15.723 0 16 0c.278 0 .524.107.737.32L31.68 15.264c.214.213.321.46.321.737z"/></symbol><symbol viewBox="0 0 32 32" id="arrow-circle-down" xmlns="http://www.w3.org/2000/svg"><path d="M26.75 16.02c0-.374-.125-.687-.375-.937l-1.896-1.896a1.272 1.272 0 0 0-.937-.374c-.375 0-.688.124-.938.374l-3.937 3.938V6.667c0-.361-.132-.674-.396-.938a1.281 1.281 0 0 0-.938-.396h-2.666c-.361 0-.674.132-.938.396a1.281 1.281 0 0 0-.396.938v10.458l-3.937-3.938a1.281 1.281 0 0 0-.938-.395c-.36 0-.673.132-.937.396l-1.896 1.895c-.25.25-.375.563-.375.938s.125.687.375.937l7.542 7.542 1.896 1.896c.25.25.562.375.937.375s.688-.125.938-.375l1.895-1.896 7.542-7.542c.25-.25.375-.562.375-.937zM32 16c0 2.903-.715 5.58-2.146 8.031a15.928 15.928 0 0 1-5.823 5.823C21.58 31.284 18.903 32 16 32c-2.903 0-5.58-.715-8.031-2.146a15.928 15.928 0 0 1-5.823-5.823C.716 21.58 0 18.903 0 16c0-2.903.715-5.58 2.146-8.031a15.928 15.928 0 0 1 5.823-5.823C10.42.716 13.097 0 16 0c2.903 0 5.58.715 8.031 2.146a15.928 15.928 0 0 1 5.823 5.823C31.284 10.42 32 13.097 32 16z"/></symbol><symbol viewBox="0 0 32 31" id="arrow-up" xmlns="http://www.w3.org/2000/svg"><path d="M32 16c0 .698-.253 1.315-.76 1.849l-1.54 1.54a2.55 2.55 0 0 1-1.87.78c-.739 0-1.355-.26-1.848-.78l-6.038-6.018v14.46c0 .712-.257 1.29-.77 1.735-.514.445-1.134.668-1.86.668h-2.629c-.725 0-1.345-.223-1.858-.668-.514-.445-.77-1.023-.77-1.735V13.37l-6.039 6.018c-.493.52-1.11.78-1.849.78-.739 0-1.355-.26-1.848-.78l-1.54-1.54C.26 17.329 0 16.712 0 16c0-.726.26-1.349.78-1.87L14.151.76C14.631.253 15.247 0 16 0c.74 0 1.362.253 1.87.76l13.37 13.37c.507.535.76 1.158.76 1.87z"/></symbol><symbol viewBox="0 0 32 32" id="arrows" xmlns="http://www.w3.org/2000/svg"><path d="M32 16c0 .31-.113.577-.34.804l-4.57 4.571c-.227.226-.495.34-.804.34a1.1 1.1 0 0 1-.804-.34 1.098 1.098 0 0 1-.34-.804v-2.285h-6.856v6.857h2.285c.31 0 .578.113.804.34.226.225.34.493.34.803 0 .31-.114.577-.34.803l-4.571 4.572A1.1 1.1 0 0 1 16 32c-.31 0-.577-.113-.804-.34l-4.571-4.57a1.098 1.098 0 0 1-.34-.804c0-.31.114-.578.34-.804a1.1 1.1 0 0 1 .804-.34h2.285v-6.856H6.857v2.285c0 .31-.113.578-.34.804-.225.226-.493.34-.803.34-.31 0-.577-.114-.803-.34L.339 16.804A1.098 1.098 0 0 1 0 16c0-.31.113-.577.34-.804l4.57-4.571c.227-.226.495-.34.804-.34.31 0 .578.114.804.34a1.1 1.1 0 0 1 .34.804v2.285h6.856V6.857H11.43c-.31 0-.578-.113-.804-.34a1.098 1.098 0 0 1-.34-.803c0-.31.114-.577.34-.803l4.57-4.572A1.1 1.1 0 0 1 16 0c.31 0 .577.113.804.34l4.571 4.57c.226.227.34.495.34.804a1.1 1.1 0 0 1-.34.804 1.1 1.1 0 0 1-.804.34h-2.285v6.856h6.857V11.43c0-.31.113-.578.34-.804.225-.226.493-.34.803-.34.31 0 .577.114.803.34l4.572 4.571a1.1 1.1 0 0 1 .339.804z"/></symbol><symbol viewBox="0 0 32 32" id="arrows-alt" xmlns="http://www.w3.org/2000/svg"><path d="M26.73 8.604L19.332 16l7.396 7.396 3-3c.403-.43.89-.528 1.459-.292.541.236.812.646.812 1.23v9.333c0 .36-.132.673-.396.937a1.281 1.281 0 0 1-.937.396h-9.334c-.583 0-.993-.278-1.229-.833-.236-.542-.139-1.021.292-1.438l3-3L16 19.333 8.604 26.73l3 3c.43.417.528.896.292 1.438-.236.555-.646.833-1.23.833H1.334c-.36 0-.673-.132-.937-.396A1.281 1.281 0 0 1 0 30.667v-9.334c0-.583.278-.993.833-1.229.542-.236 1.021-.139 1.438.292l3 3L12.667 16 5.27 8.604l-3 3a1.281 1.281 0 0 1-1.438.292C.278 11.66 0 11.25 0 10.666V1.334C0 .973.132.66.396.396S.972 0 1.333 0h9.334c.583 0 .993.278 1.229.833.236.542.139 1.021-.292 1.438l-3 3L16 12.667l7.396-7.396-3-3c-.43-.417-.528-.896-.292-1.438C20.34.278 20.75 0 21.334 0h9.333c.36 0 .673.132.937.396s.396.576.396.937v9.334c0 .583-.27.993-.813 1.229-.18.07-.354.104-.52.104-.361 0-.674-.132-.938-.396l-3-3z"/></symbol><symbol viewBox="0 0 32 12" id="arrows-h" xmlns="http://www.w3.org/2000/svg"><path d="M32 5.714c0 .31-.113.578-.34.804l-4.57 4.571c-.227.226-.495.34-.804.34a1.1 1.1 0 0 1-.804-.34 1.098 1.098 0 0 1-.34-.803V8H6.858v2.286c0 .31-.113.577-.34.803-.225.226-.493.34-.803.34-.31 0-.577-.114-.803-.34L.339 6.518A1.098 1.098 0 0 1 0 5.714c0-.31.113-.577.34-.803L4.91.339C5.138.113 5.406 0 5.715 0c.31 0 .578.113.804.34.226.225.34.493.34.803v2.286h18.285V1.143c0-.31.113-.578.34-.804.225-.226.493-.339.803-.339.31 0 .577.113.803.34l4.572 4.57c.226.227.339.495.339.804z"/></symbol><symbol viewBox="0 0 12 32" id="arrows-v" xmlns="http://www.w3.org/2000/svg"><path d="M11.429 5.714a1.1 1.1 0 0 1-.34.804c-.226.226-.494.34-.803.34H8v18.285h2.286c.31 0 .577.113.803.34.226.225.34.493.34.803 0 .31-.114.577-.34.803l-4.571 4.572a1.099 1.099 0 0 1-.804.339c-.31 0-.577-.113-.803-.34L.339 27.09A1.098 1.098 0 0 1 0 26.285c0-.31.113-.578.34-.804.225-.226.493-.34.803-.34h2.286V6.858H1.143c-.31 0-.578-.113-.804-.34A1.098 1.098 0 0 1 0 5.715c0-.31.113-.577.34-.803L4.91.339C5.138.113 5.406 0 5.715 0c.31 0 .578.113.804.34l4.571 4.57c.226.227.34.495.34.804z"/></symbol><symbol viewBox="0 0 32 27" id="bars" xmlns="http://www.w3.org/2000/svg"><path d="M32 22.667v2.666c0 .361-.132.674-.396.938a1.281 1.281 0 0 1-.937.396H1.333c-.36 0-.673-.132-.937-.396A1.281 1.281 0 0 1 0 25.333v-2.666c0-.361.132-.674.396-.938a1.28 1.28 0 0 1 .937-.396h29.334c.36 0 .673.132.937.396s.396.577.396.938zM32 12v2.667c0 .36-.132.673-.396.937a1.281 1.281 0 0 1-.937.396H1.333c-.36 0-.673-.132-.937-.396A1.281 1.281 0 0 1 0 14.667V12c0-.361.132-.674.396-.938.264-.263.576-.395.937-.395h29.334c.36 0 .673.132.937.396.264.263.396.576.396.937zm0-10.667V4c0 .361-.132.674-.396.938a1.281 1.281 0 0 1-.937.395H1.333c-.36 0-.673-.132-.937-.396A1.281 1.281 0 0 1 0 4V1.333C0 .973.132.66.396.396S.972 0 1.333 0h29.334c.36 0 .673.132.937.396s.396.576.396.937z"/></symbol><symbol viewBox="0 0 32 25" id="check" xmlns="http://www.w3.org/2000/svg"><path d="M32 4.79c0 .55-.193 1.018-.578 1.404L16.475 21.14l-2.808 2.807a1.911 1.911 0 0 1-1.404.578c-.55 0-1.018-.192-1.404-.578L8.052 21.14.578 13.666A1.911 1.911 0 0 1 0 12.263c0-.55.193-1.018.578-1.404l2.808-2.807a1.911 1.911 0 0 1 1.404-.578c.55 0 1.018.192 1.404.578l6.07 6.09L25.805.578A1.911 1.911 0 0 1 27.21 0c.55 0 1.019.193 1.404.578l2.808 2.808c.385.385.578.853.578 1.404z"/></symbol><symbol viewBox="0 0 32 32" id="check-circle" xmlns="http://www.w3.org/2000/svg"><path d="M26.75 12.625c0-.389-.125-.708-.375-.958l-1.896-1.875a1.281 1.281 0 0 0-.937-.396c-.361 0-.674.132-.938.396l-8.5 8.479-4.708-4.709a1.281 1.281 0 0 0-.938-.395c-.36 0-.673.132-.937.396l-1.896 1.874c-.25.25-.375.57-.375.959 0 .375.125.687.375.937l7.542 7.542c.264.264.576.396.937.396.375 0 .695-.132.959-.396l11.312-11.313c.25-.25.375-.562.375-.937zM32 16c0 2.903-.715 5.58-2.146 8.031a15.928 15.928 0 0 1-5.823 5.823C21.58 31.284 18.903 32 16 32c-2.903 0-5.58-.715-8.031-2.146a15.928 15.928 0 0 1-5.823-5.823C.716 21.58 0 18.903 0 16c0-2.903.715-5.58 2.146-8.031a15.928 15.928 0 0 1 5.823-5.823C10.42.716 13.097 0 16 0c2.903 0 5.58.715 8.031 2.146a15.928 15.928 0 0 1 5.823 5.823C31.284 10.42 32 13.097 32 16z"/></symbol><symbol viewBox="0 0 32 32" id="check-circle-o" xmlns="http://www.w3.org/2000/svg"><path d="M24.396 14.27l-8.792 8.793a1.281 1.281 0 0 1-.937.395c-.361 0-.674-.132-.938-.395l-6.125-6.125A1.281 1.281 0 0 1 7.208 16c0-.361.132-.674.396-.938l2.125-2.124c.264-.264.577-.396.938-.396.36 0 .673.132.937.396L14.667 16l5.729-5.73c.264-.263.576-.395.937-.395.361 0 .674.132.938.396l2.125 2.125c.264.264.396.576.396.937 0 .361-.132.674-.396.938zM27.333 16c0-2.056-.507-3.951-1.52-5.688a11.298 11.298 0 0 0-4.125-4.124C19.95 5.173 18.055 4.667 16 4.667c-2.056 0-3.951.507-5.688 1.52a11.298 11.298 0 0 0-4.124 4.125C5.173 12.05 4.667 13.944 4.667 16c0 2.056.507 3.951 1.52 5.688a11.298 11.298 0 0 0 4.125 4.125c1.737 1.013 3.632 1.52 5.688 1.52 2.056 0 3.951-.507 5.688-1.52a11.298 11.298 0 0 0 4.125-4.125c1.013-1.737 1.52-3.632 1.52-5.688zM32 16c0 2.903-.715 5.58-2.146 8.031a15.928 15.928 0 0 1-5.823 5.823C21.58 31.284 18.903 32 16 32c-2.903 0-5.58-.715-8.031-2.146a15.928 15.928 0 0 1-5.823-5.823C.716 21.58 0 18.903 0 16c0-2.903.715-5.58 2.146-8.031a15.928 15.928 0 0 1 5.823-5.823C10.42.716 13.097 0 16 0c2.903 0 5.58.715 8.031 2.146a15.928 15.928 0 0 1 5.823 5.823C31.284 10.42 32 13.097 32 16z"/></symbol><symbol viewBox="0 0 446 446" id="check_circle" xmlns="http://www.w3.org/2000/svg"><path d="M223 0c122.959 0 223 100.033 223 223S345.959 446 223 446 0 345.967 0 223 100.041 0 223 0zm0 407.846c101.92 0 184.846-82.926 184.846-184.846S324.92 38.154 223 38.154 38.154 121.08 38.154 223 121.08 407.846 223 407.846zm98.366-265.478c6.314 5.608 6.882 15.287 1.278 21.59L214.081 286.35a15.263 15.263 0 0 1-11.44 5.15c-3.447 0-6.813-1.16-9.557-3.357l-67.857-54.4c-6.58-5.279-7.646-14.89-2.383-21.495 5.27-6.6 14.916-7.678 21.493-2.39l56.518 45.31 98.92-111.52c5.617-6.333 15.28-6.901 21.591-1.28z"/></symbol><symbol viewBox="0 0 32 32" id="chevron-circle-down" xmlns="http://www.w3.org/2000/svg"><path d="M16.938 24.396l9.458-9.459c.264-.263.396-.576.396-.937 0-.361-.132-.674-.396-.938l-2.125-2.124a1.281 1.281 0 0 0-.938-.396c-.36 0-.673.132-.937.396L16 17.332l-6.396-6.395a1.281 1.281 0 0 0-.937-.396c-.361 0-.674.132-.938.396l-2.125 2.124a1.281 1.281 0 0 0-.396.938c0 .361.132.674.396.938l9.459 9.458c.263.264.576.396.937.396.361 0 .674-.132.938-.396zM32 16c0 2.903-.715 5.58-2.146 8.031a15.928 15.928 0 0 1-5.823 5.823C21.58 31.284 18.903 32 16 32c-2.903 0-5.58-.715-8.031-2.146a15.928 15.928 0 0 1-5.823-5.823C.716 21.58 0 18.903 0 16c0-2.903.715-5.58 2.146-8.031a15.928 15.928 0 0 1 5.823-5.823C10.42.716 13.097 0 16 0c2.903 0 5.58.715 8.031 2.146a15.928 15.928 0 0 1 5.823 5.823C31.284 10.42 32 13.097 32 16z"/></symbol><symbol viewBox="0 0 32 32" id="chevron-circle-left" xmlns="http://www.w3.org/2000/svg"><path d="M18.938 26.413l2.125-2.126c.263-.264.395-.577.395-.938 0-.362-.132-.675-.395-.939l-6.396-6.4 6.396-6.4c.263-.264.395-.576.395-.938 0-.361-.132-.674-.395-.938l-2.125-2.126A1.28 1.28 0 0 0 18 5.212a1.28 1.28 0 0 0-.938.396l-9.458 9.464a1.283 1.283 0 0 0-.396.938c0 .362.132.674.396.939l9.459 9.464c.263.264.576.396.937.396.361 0 .674-.132.938-.396zM32 16.01c0 2.905-.715 5.584-2.146 8.037a15.933 15.933 0 0 1-5.823 5.827C21.58 31.305 18.903 32.02 16 32.02c-2.903 0-5.58-.716-8.031-2.147a15.933 15.933 0 0 1-5.823-5.827C.716 21.594 0 18.915 0 16.01c0-2.904.715-5.583 2.146-8.036a15.933 15.933 0 0 1 5.823-5.827C10.42.716 13.097 0 16 0c2.903 0 5.58.716 8.031 2.147a15.933 15.933 0 0 1 5.823 5.827C31.284 10.427 32 13.106 32 16.01z"/></symbol><symbol viewBox="0 0 32 32" id="chevron-circle-right" xmlns="http://www.w3.org/2000/svg"><path d="M14.938 26.396l9.458-9.459c.264-.263.396-.576.396-.937 0-.361-.132-.674-.396-.938l-9.459-9.458A1.281 1.281 0 0 0 14 5.208c-.361 0-.674.132-.938.396L10.938 7.73a1.281 1.281 0 0 0-.396.938c0 .36.132.673.396.937L17.332 16l-6.395 6.396a1.281 1.281 0 0 0-.396.937c0 .361.132.674.396.938l2.124 2.125c.264.264.577.396.938.396s.674-.132.938-.396zM32 16c0 2.903-.715 5.58-2.146 8.031a15.928 15.928 0 0 1-5.823 5.823C21.58 31.284 18.903 32 16 32c-2.903 0-5.58-.715-8.031-2.146a15.928 15.928 0 0 1-5.823-5.823C.716 21.58 0 18.903 0 16c0-2.903.715-5.58 2.146-8.031a15.928 15.928 0 0 1 5.823-5.823C10.42.716 13.097 0 16 0c2.903 0 5.58.715 8.031 2.146a15.928 15.928 0 0 1 5.823 5.823C31.284 10.42 32 13.097 32 16z"/></symbol><symbol viewBox="0 0 32 32" id="chevron-circle-up" xmlns="http://www.w3.org/2000/svg"><path d="M24.27 21.063l2.126-2.125c.264-.264.396-.577.396-.938s-.132-.674-.396-.938l-9.459-9.458A1.281 1.281 0 0 0 16 7.208c-.361 0-.674.132-.938.396l-9.458 9.459a1.281 1.281 0 0 0-.396.937c0 .361.132.674.396.938l2.125 2.125c.264.263.577.395.938.395.36 0 .673-.132.937-.395L16 14.666l6.396 6.396c.264.263.576.395.937.395.361 0 .674-.132.938-.395zM32 16c0 2.903-.715 5.58-2.146 8.031a15.928 15.928 0 0 1-5.823 5.823C21.58 31.284 18.903 32 16 32c-2.903 0-5.58-.715-8.031-2.146a15.928 15.928 0 0 1-5.823-5.823C.716 21.58 0 18.903 0 16c0-2.903.715-5.58 2.146-8.031a15.928 15.928 0 0 1 5.823-5.823C10.42.716 13.097 0 16 0c2.903 0 5.58.715 8.031 2.146a15.928 15.928 0 0 1 5.823 5.823C31.284 10.42 32 13.097 32 16z"/></symbol><symbol viewBox="0 0 32 21" id="chevron-down" xmlns="http://www.w3.org/2000/svg"><path d="M31.623 5.46l-14.73 14.709a1.22 1.22 0 0 1-.893.377 1.22 1.22 0 0 1-.893-.377L.377 5.459A1.232 1.232 0 0 1 0 4.556c0-.35.126-.652.377-.903L3.672.377A1.22 1.22 0 0 1 4.566 0c.344 0 .642.126.893.377L16 10.918 26.54.378A1.22 1.22 0 0 1 27.435 0c.344 0 .642.126.894.377l3.295 3.276c.251.251.377.552.377.903 0 .35-.126.652-.377.903z"/></symbol><symbol viewBox="0 0 21 32" id="chevron-left" xmlns="http://www.w3.org/2000/svg"><path d="M20.189 5.46L9.648 16l10.54 10.54c.252.252.378.55.378.894s-.126.642-.377.894l-3.296 3.295A1.22 1.22 0 0 1 16 32a1.22 1.22 0 0 1-.893-.377L.377 16.893A1.22 1.22 0 0 1 0 16c0-.344.126-.642.377-.893L15.107.377A1.22 1.22 0 0 1 16 0c.344 0 .642.126.893.377l3.296 3.295c.251.252.377.55.377.894s-.126.642-.377.893z"/></symbol><symbol viewBox="0 0 21 32" id="chevron-right" xmlns="http://www.w3.org/2000/svg"><path d="M20.189 16.893l-14.73 14.73a1.22 1.22 0 0 1-.893.377 1.22 1.22 0 0 1-.894-.377L.377 28.328A1.22 1.22 0 0 1 0 27.434c0-.344.126-.642.377-.893L10.918 16 .378 5.46A1.22 1.22 0 0 1 0 4.565c0-.344.126-.642.377-.894L3.672.377A1.22 1.22 0 0 1 4.566 0c.344 0 .642.126.893.377l14.73 14.73c.251.251.377.549.377.893s-.126.642-.377.893z"/></symbol><symbol viewBox="0 0 32 21" id="chevron-up" xmlns="http://www.w3.org/2000/svg"><path d="M31.623 16.893l-3.295 3.276a1.22 1.22 0 0 1-.894.377 1.22 1.22 0 0 1-.893-.377L16 9.628 5.46 20.168a1.22 1.22 0 0 1-.894.378 1.22 1.22 0 0 1-.894-.377L.377 16.893A1.232 1.232 0 0 1 0 15.99c0-.35.126-.652.377-.903L15.107.377A1.22 1.22 0 0 1 16 0c.344 0 .642.126.893.377l14.73 14.71c.251.251.377.552.377.903 0 .35-.126.652-.377.903z"/></symbol><symbol viewBox="0 0 12 12" id="cross" xmlns="http://www.w3.org/2000/svg"><path fill-rule="evenodd" d="M6 4.364L10.364 0 12 1.636 7.636 6 12 10.364 10.364 12 6 7.636 1.636 12 0 10.364 4.364 6 0 1.636 1.636 0z"/></symbol><symbol viewBox="0 0 17 32" id="facebook" xmlns="http://www.w3.org/2000/svg"><path d="M16.615.23v5.078h-3.019c-1.102 0-1.846.23-2.23.692-.385.462-.578 1.154-.578 2.077v3.635h5.635l-.75 5.692h-4.885V32H4.904V17.404H0v-5.692h4.904V7.519c0-2.384.667-4.234 2-5.548S10.013 0 12.23 0c1.884 0 3.346.077 4.384.23z"/></symbol><symbol viewBox="0 0 32 32" id="globe" xmlns="http://www.w3.org/2000/svg"><path d="M16 0c2.903 0 5.58.715 8.031 2.146a15.928 15.928 0 0 1 5.823 5.823C31.284 10.42 32 13.097 32 16c0 2.903-.715 5.58-2.146 8.031a15.928 15.928 0 0 1-5.823 5.823C21.58 31.284 18.903 32 16 32c-2.903 0-5.58-.715-8.031-2.146a15.928 15.928 0 0 1-5.823-5.823C.716 21.58 0 18.903 0 16c0-2.903.715-5.58 2.146-8.031a15.928 15.928 0 0 1 5.823-5.823C10.42.716 13.097 0 16 0zm5.708 10.854c-.027.014-.093.08-.198.198-.104.118-.198.184-.28.198.027 0 .058-.035.093-.104.035-.07.07-.146.104-.23a.64.64 0 0 1 .073-.145c.083-.097.236-.202.458-.313.195-.083.556-.166 1.084-.25.472-.11.826-.034 1.062.23-.028-.028.038-.119.198-.271.16-.153.26-.236.302-.25.042-.028.146-.06.313-.094.166-.035.27-.087.312-.156l.042-.459c-.167.014-.288-.034-.365-.146a.881.881 0 0 1-.135-.437c0 .028-.042.083-.125.167 0-.098-.031-.153-.094-.167a.501.501 0 0 0-.24.02c-.097.029-.16.036-.187.022a.818.818 0 0 1-.313-.157c-.069-.062-.125-.177-.166-.343a5.925 5.925 0 0 0-.084-.313.623.623 0 0 0-.197-.229.74.74 0 0 1-.198-.208 2.259 2.259 0 0 1-.052-.115 2.546 2.546 0 0 0-.063-.135.44.44 0 0 0-.083-.115.16.16 0 0 0-.115-.052c-.041 0-.09.035-.146.104a4.07 4.07 0 0 0-.156.208c-.049.07-.08.105-.094.105a.17.17 0 0 0-.125-.032.664.664 0 0 0-.093.021.351.351 0 0 0-.094.063.583.583 0 0 1-.281.135 1.362 1.362 0 0 0-.177.042c.208-.07.2-.146-.021-.23-.14-.055-.25-.076-.334-.062.125-.055.177-.139.157-.25a.501.501 0 0 0-.177-.292h.104c-.014-.055-.073-.114-.177-.177a2.554 2.554 0 0 0-.365-.177 1.794 1.794 0 0 1-.27-.125c-.112-.07-.348-.135-.71-.198-.36-.062-.59-.066-.687-.01-.07.083-.1.156-.093.219.007.062.034.16.083.291.049.132.073.22.073.26.014.084-.024.174-.115.272-.09.097-.135.18-.135.25 0 .097.097.205.291.323.195.118.264.267.209.447-.042.112-.153.223-.334.334-.18.11-.291.194-.333.25a.435.435 0 0 0-.031.385c.049.146.121.26.219.344.027.028.038.056.03.083-.006.028-.03.06-.072.094a.932.932 0 0 1-.115.083 1.65 1.65 0 0 1-.135.073l-.063.042c-.152.07-.295.028-.427-.125a1.347 1.347 0 0 1-.28-.542c-.098-.347-.21-.555-.334-.625-.32-.11-.521-.104-.604.021-.07-.18-.355-.36-.855-.541-.347-.126-.75-.153-1.208-.084.084-.014.084-.118 0-.312-.097-.209-.229-.292-.396-.25.042-.084.07-.205.084-.365.014-.16.02-.253.02-.281.042-.18.126-.34.25-.48a3.995 3.995 0 0 0 .344-.458c.049-.083.052-.125.01-.125.487.056.834-.02 1.042-.229.07-.07.15-.187.24-.354a2.47 2.47 0 0 1 .219-.354c.125-.083.222-.122.291-.115a.92.92 0 0 1 .302.115c.132.07.233.104.302.104.195.014.303-.063.323-.23a.452.452 0 0 0-.156-.416c.167.014.188-.104.063-.354a.453.453 0 0 0-.167-.188c-.167-.055-.354-.02-.563.105-.11.055-.097.11.042.166-.014-.014-.08.06-.198.22-.118.159-.232.28-.343.364-.112.083-.223.048-.334-.104a1.68 1.68 0 0 1-.114-.282c-.063-.173-.129-.267-.198-.281-.111 0-.223.104-.334.313.042-.112-.034-.216-.229-.313a1.499 1.499 0 0 0-.5-.167c.264-.166.209-.354-.166-.562a1.035 1.035 0 0 0-.428-.104c-.187-.014-.322.014-.406.083a.56.56 0 0 0-.114.24c-.007.062.027.118.104.166.076.049.15.087.219.115.069.028.149.055.24.083.09.028.148.049.176.063.195.139.25.236.167.291a2.52 2.52 0 0 1-.177.073l-.24.094c-.07.028-.11.056-.125.083-.041.056-.041.153 0 .292.042.139.028.236-.041.292-.07-.07-.132-.191-.188-.365a1.329 1.329 0 0 0-.146-.344c.097.125-.076.167-.52.125l-.209-.02c-.056 0-.167.013-.333.041a1.548 1.548 0 0 1-.427.021.387.387 0 0 1-.282-.167c-.055-.11-.055-.25 0-.416.014-.056.042-.07.084-.042a3.122 3.122 0 0 1-.23-.198 2.033 2.033 0 0 0-.208-.177 11.8 11.8 0 0 0-1.958.854.513.513 0 0 0 .25-.02c.07-.028.16-.074.27-.136.112-.063.181-.1.209-.115.472-.194.764-.243.875-.146l.104-.104c.195.223.334.396.417.521-.097-.055-.306-.062-.625-.02-.278.083-.43.166-.459.25.098.166.132.291.105.374a3.254 3.254 0 0 1-.24-.208 1.652 1.652 0 0 0-.302-.23.832.832 0 0 0-.313-.103c-.222 0-.374.007-.458.02a13.147 13.147 0 0 0-4.896 4.625c.098.098.18.153.25.167.056.014.09.077.104.188a.798.798 0 0 0 .053.229c.02.041.1.02.24-.063.124.111.145.243.062.396.014-.014.32.174.916.563.264.236.41.382.438.437.042.153-.028.278-.208.375a1.065 1.065 0 0 0-.188-.187c-.111-.098-.174-.125-.188-.084-.041.07-.038.198.01.386.05.187.122.274.22.26-.098 0-.164.111-.198.334a4.812 4.812 0 0 0-.052.74c0 .27-.007.433-.021.489l.042.02c-.042.167-.004.407.114.72.118.312.267.447.448.405-.18.042-.042.34.417.896a.847.847 0 0 0 .166.188c.042.028.125.08.25.156s.23.146.313.208a.889.889 0 0 1 .208.22c.056.069.125.225.209.468.083.243.18.406.291.49-.028.083.038.222.198.416.16.195.233.354.219.48a.101.101 0 0 0-.052.02.101.101 0 0 1-.052.021c.041.097.149.194.323.292.173.097.28.187.322.27.014.042.028.112.042.209a.766.766 0 0 0 .063.229c.027.056.083.07.166.042.028-.278-.139-.709-.5-1.292a17.118 17.118 0 0 1-.354-.604 1.197 1.197 0 0 1-.114-.323 1.588 1.588 0 0 0-.094-.302.4.4 0 0 1 .125.031c.055.02.114.045.177.073.062.028.114.056.156.083.042.028.056.049.042.063-.042.097-.028.219.041.364.07.146.153.275.25.386a28.573 28.573 0 0 0 .605.666c.083.084.18.22.291.407.111.187.111.281 0 .281.125 0 .264.073.417.219.153.146.27.281.354.406.07.111.125.292.167.542.041.25.076.416.104.5a.659.659 0 0 0 .177.28c.09.091.177.157.26.199l.334.166.27.146c.07.028.199.101.386.22.188.117.337.197.448.239a.96.96 0 0 0 .333.083 1.1 1.1 0 0 0 .302-.052 3.47 3.47 0 0 1 .282-.073c.208-.028.41.076.604.313.194.236.34.381.437.437.5.264.882.34 1.146.23-.028.013-.024.065.01.155.035.09.09.198.167.323a20.423 20.423 0 0 0 .302.48c.07.083.195.187.375.312s.306.23.375.313c.084-.056.132-.119.146-.188-.041.111.007.25.146.417.139.166.264.236.375.208.194-.042.292-.264.292-.667-.43.209-.771.084-1.021-.375a.406.406 0 0 0-.052-.114 1.327 1.327 0 0 1-.136-.354.295.295 0 0 1 0-.157c.014-.041.049-.062.105-.062.125 0 .194-.024.208-.073.014-.049 0-.136-.042-.26a4.2 4.2 0 0 1-.083-.271c-.014-.111-.09-.25-.23-.417a5.552 5.552 0 0 1-.25-.313c-.069.125-.18.181-.333.167-.152-.014-.264-.076-.333-.187 0 .014-.01.052-.031.114a.496.496 0 0 0-.032.136c-.18 0-.284-.007-.312-.021.014-.042.031-.163.052-.365.02-.201.045-.357.073-.468.014-.056.052-.14.115-.25.062-.112.114-.212.156-.303.041-.09.07-.177.083-.26.014-.083-.017-.15-.094-.198-.076-.049-.198-.066-.364-.052-.264.014-.445.153-.542.417a4.322 4.322 0 0 0-.062.218.706.706 0 0 1-.104.24.519.519 0 0 1-.188.146c-.097.041-.264.055-.5.041-.236-.013-.403-.048-.5-.104-.18-.11-.337-.312-.469-.604-.132-.291-.198-.548-.198-.77 0-.14.018-.324.052-.553a6.23 6.23 0 0 0 .063-.52c.007-.119-.031-.289-.115-.511a1.08 1.08 0 0 0 .188-.198c.083-.104.153-.177.208-.219a.372.372 0 0 1 .094-.03.213.213 0 0 1 .094 0c.027.006.055-.004.083-.032a.264.264 0 0 0 .063-.125.62.62 0 0 0-.084-.063c-.041-.041-.07-.062-.083-.062.097.041.295.031.594-.031.298-.063.49-.052.572.03.209.154.362.14.459-.04 0-.015-.018-.08-.052-.199-.035-.118-.038-.212-.01-.281.069.375.27.438.604.188.041.041.149.076.322.104.174.027.296.062.365.104.042.028.09.066.146.114.055.049.094.08.114.094.021.014.056.01.105-.01a.628.628 0 0 0 .177-.136c.139.195.222.361.25.5.152.556.284.861.395.917.098.042.174.056.23.042.055-.014.086-.08.093-.198a2.02 2.02 0 0 0 0-.292 5.178 5.178 0 0 0-.03-.26l-.022-.167v-.375l-.02-.167c-.209-.041-.337-.125-.386-.25a.447.447 0 0 1 .031-.385c.07-.132.174-.26.313-.386a.68.68 0 0 1 .166-.072c.098-.035.205-.08.323-.136a.937.937 0 0 0 .26-.166c.293-.264.397-.507.313-.73.098 0 .174-.062.23-.187-.014 0-.05-.021-.105-.063a1.523 1.523 0 0 0-.156-.104.283.283 0 0 0-.094-.041c.125-.07.14-.181.042-.334.07-.041.122-.118.156-.229.035-.111.087-.18.157-.208.125.166.27.18.437.041.111-.11.118-.222.02-.333.07-.097.213-.17.428-.219.215-.048.344-.114.385-.198.098.028.153.014.167-.041a1.11 1.11 0 0 0 .02-.25c0-.111.022-.195.063-.25.056-.07.16-.132.313-.188a4.15 4.15 0 0 0 .27-.104l.355-.23c.041-.055.041-.082 0-.082a.754.754 0 0 0 .646-.23c.139-.152.097-.291-.125-.416.041-.084.02-.15-.063-.198a1.09 1.09 0 0 0-.312-.115.755.755 0 0 1 .24-.01c.117.007.19-.004.218-.031.208-.14.16-.25-.146-.334-.236-.07-.535.014-.896.25zm-3.395 18.271c2.86-.5 5.298-1.813 7.312-3.938-.042-.041-.128-.072-.26-.093a.748.748 0 0 1-.26-.073 3.277 3.277 0 0 0-.5-.167.408.408 0 0 0-.053-.27.556.556 0 0 0-.167-.188 10.69 10.69 0 0 0-.26-.167c-.111-.07-.188-.118-.23-.146a1.965 1.965 0 0 0-.145-.125 1.478 1.478 0 0 0-.302-.208c-.076-.042-.136-.056-.177-.042a.731.731 0 0 1-.209.021L23 23.75a.576.576 0 0 0-.115.052 2.25 2.25 0 0 1-.114.063.215.215 0 0 0-.084.062c-.013.02-.013.038 0 .052-.291-.236-.541-.389-.75-.458a.588.588 0 0 1-.229-.115 1.978 1.978 0 0 0-.218-.146.304.304 0 0 0-.209-.03.475.475 0 0 0-.24.145.498.498 0 0 0-.124.313 1.58 1.58 0 0 1-.042.27c-.097-.07-.097-.19 0-.364s.111-.302.042-.386c-.042-.083-.115-.114-.22-.093a.697.697 0 0 0-.25.093 4.923 4.923 0 0 0-.239.177c-.097.077-.16.122-.187.136a1.993 1.993 0 0 0-.177.114.7.7 0 0 0-.177.157 1.034 1.034 0 0 0-.125.25 1.26 1.26 0 0 1-.105.229c-.027-.056-.107-.1-.24-.136-.131-.034-.197-.073-.197-.114.028.139.056.382.083.729.028.347.063.611.105.792.097.43.013.764-.25 1-.375.347-.577.625-.605.833-.055.306.028.486.25.542 0 .097-.055.24-.166.427-.111.187-.16.337-.146.448 0 .083.014.194.041.333z"/></symbol><symbol viewBox="0 0 32 21" id="google-plus" xmlns="http://www.w3.org/2000/svg"><path d="M19.958 10.417c0 1.926-.402 3.64-1.208 5.146a8.712 8.712 0 0 1-3.444 3.527c-1.491.848-3.2 1.271-5.125 1.271-1.38 0-2.7-.268-3.959-.805s-2.342-1.26-3.25-2.167a10.182 10.182 0 0 1-2.166-3.25A9.988 9.988 0 0 1 0 10.18c0-1.38.269-2.7.806-3.959s1.259-2.342 2.166-3.25c.908-.907 1.991-1.63 3.25-2.166A9.988 9.988 0 0 1 10.181 0C12.829 0 15.1.889 17 2.667l-2.764 2.652c-1.083-1.046-2.435-1.569-4.055-1.569a6.082 6.082 0 0 0-3.16.861 6.334 6.334 0 0 0-2.299 2.34 6.385 6.385 0 0 0-.847 3.23c0 1.166.282 2.243.847 3.229a6.334 6.334 0 0 0 2.299 2.34c.967.574 2.02.861 3.16.861.768 0 1.474-.106 2.118-.32.643-.212 1.173-.479 1.59-.798a5.79 5.79 0 0 0 1.09-1.09c.31-.408.537-.792.68-1.153.144-.361.244-.704.3-1.028H10.18v-3.5h9.61c.112.584.167 1.148.167 1.695zM32 8.722v2.917h-2.903v2.903h-2.916v-2.903h-2.903V8.722h2.903V5.82h2.916v2.903H32z"/></symbol><symbol viewBox="0 0 32 26" id="home" xmlns="http://www.w3.org/2000/svg"><path d="M27.42 14.652v9.517c0 .343-.125.64-.377.892a1.22 1.22 0 0 1-.892.376h-7.613v-7.613h-5.076v7.613H5.85a1.22 1.22 0 0 1-.892-.376 1.22 1.22 0 0 1-.377-.892v-9.517a.26.26 0 0 1 .01-.06.271.271 0 0 0 .01-.06L16 5.136l11.4 9.398c.013.026.02.066.02.119zm4.421-1.368l-1.229 1.467a.675.675 0 0 1-.416.218h-.06a.61.61 0 0 1-.416-.139L16 3.39 2.28 14.83a.737.737 0 0 1-.476.139.675.675 0 0 1-.416-.218l-1.23-1.467a.643.643 0 0 1-.138-.466.576.576 0 0 1 .218-.426L14.493.515C14.916.172 15.418 0 16 0c.582 0 1.084.172 1.507.515l4.837 4.045V.694c0-.185.06-.337.179-.456a.618.618 0 0 1 .456-.179h3.807c.185 0 .337.06.456.179a.618.618 0 0 1 .178.456v8.09l4.342 3.608a.576.576 0 0 1 .218.426.643.643 0 0 1-.139.466z"/></symbol><symbol viewBox="0 0 32 31" id="linkedin" xmlns="http://www.w3.org/2000/svg"><path d="M7.27 9.938v20.645H.397V9.938H7.27zm.438-6.376c.014 1.014-.336 1.862-1.052 2.542-.715.68-1.656 1.021-2.823 1.021h-.041c-1.14 0-2.056-.34-2.75-1.02C.347 5.423 0 4.575 0 3.561 0 2.535.358 1.685 1.073 1.01 1.788.337 2.723 0 3.875 0c1.153 0 2.076.337 2.77 1.01.695.674 1.05 1.525 1.063 2.553zM32 18.75v11.833h-6.854V19.542c0-1.459-.281-2.601-.844-3.427-.562-.827-1.44-1.24-2.635-1.24-.875 0-1.608.24-2.198.719a4.43 4.43 0 0 0-1.323 1.781c-.153.417-.23.98-.23 1.688v11.52h-6.854c.028-5.541.042-10.034.042-13.479 0-3.444-.007-5.5-.02-6.166l-.021-1h6.854v3h-.042c.278-.445.563-.834.854-1.167a8.883 8.883 0 0 1 1.177-1.084c.493-.388 1.097-.69 1.813-.906.715-.215 1.51-.323 2.385-.323 2.375 0 4.285.789 5.73 2.365C31.277 13.399 32 15.708 32 18.75z"/></symbol><symbol viewBox="0 0 24 4" id="minus" xmlns="http://www.w3.org/2000/svg"><path fill-rule="evenodd" d="M24 0v4H0V0z"/></symbol><symbol viewBox="0 0 24 24" id="plus" xmlns="http://www.w3.org/2000/svg"><path fill-rule="evenodd" d="M14 10h10v4H14v10h-4V14H0v-4h10V0h4z"/></symbol><symbol viewBox="0 0 32 32" id="search" xmlns="http://www.w3.org/2000/svg"><path d="M22.154 13.538c0-2.371-.843-4.4-2.529-6.086s-3.715-2.529-6.087-2.529c-2.371 0-4.4.843-6.086 2.529s-2.529 3.715-2.529 6.086c0 2.372.843 4.401 2.529 6.087s3.715 2.529 6.086 2.529c2.372 0 4.401-.843 6.087-2.529s2.529-3.715 2.529-6.087zm9.846 16c0 .667-.244 1.244-.73 1.731-.488.487-1.065.731-1.732.731-.692 0-1.269-.244-1.73-.73l-6.596-6.578c-2.295 1.59-4.853 2.385-7.674 2.385-1.833 0-3.586-.356-5.26-1.067-1.672-.712-3.115-1.673-4.326-2.885-1.212-1.212-2.173-2.654-2.885-4.327A13.303 13.303 0 0 1 0 13.538c0-1.833.356-3.586 1.067-5.26.712-1.672 1.673-3.115 2.885-4.326C5.163 2.74 6.606 1.779 8.279 1.067A13.303 13.303 0 0 1 13.539 0c1.833 0 3.586.356 5.26 1.067 1.672.712 3.114 1.673 4.326 2.885 1.212 1.211 2.173 2.654 2.885 4.327a13.303 13.303 0 0 1 1.067 5.26c0 2.82-.795 5.378-2.385 7.673l6.596 6.596c.475.474.712 1.051.712 1.73z"/></symbol><symbol viewBox="0 0 32 27" id="sign-in" xmlns="http://www.w3.org/2000/svg"><path d="M24.667 13.333c0 .361-.132.674-.396.938L12.937 25.604A1.281 1.281 0 0 1 12 26c-.361 0-.674-.132-.938-.396a1.281 1.281 0 0 1-.395-.937v-6H1.333c-.36 0-.673-.132-.937-.396A1.281 1.281 0 0 1 0 17.333v-8c0-.36.132-.673.396-.937S.972 8 1.333 8h9.334V2c0-.361.132-.674.396-.938.263-.263.576-.395.937-.395.361 0 .674.132.938.395L24.27 12.396c.264.264.396.576.396.937zM32 6v14.667c0 1.652-.587 3.066-1.76 4.24-1.174 1.173-2.587 1.76-4.24 1.76h-6.667a.64.64 0 0 1-.468-.198.64.64 0 0 1-.198-.469c0-.056-.007-.194-.021-.417a5.189 5.189 0 0 1-.01-.552 3.5 3.5 0 0 1 .062-.49.695.695 0 0 1 .208-.406c.104-.09.247-.135.427-.135H26a3.21 3.21 0 0 0 2.354-.98 3.21 3.21 0 0 0 .98-2.353V6a3.21 3.21 0 0 0-.98-2.354A3.21 3.21 0 0 0 26 2.666h-6.5l-.24-.02-.24-.063-.166-.114-.146-.188L18.667 2c0-.056-.007-.194-.021-.417a5.189 5.189 0 0 1-.01-.552 3.5 3.5 0 0 1 .062-.49.695.695 0 0 1 .208-.406c.104-.09.247-.135.427-.135H26c1.653 0 3.066.587 4.24 1.76C31.413 2.934 32 4.347 32 6z"/></symbol><symbol viewBox="0 0 32 27" id="sign-out" xmlns="http://www.w3.org/2000/svg"><path d="M13.061 24.163c0 .055.007.19.02.408a3.428 3.428 0 0 1-.051 1.02.676.676 0 0 1-.203.399.623.623 0 0 1-.419.132h-6.53c-1.62 0-3.004-.574-4.154-1.724S0 21.864 0 20.245V5.878c0-1.62.575-3.004 1.724-4.154C2.874.574 4.26 0 5.878 0h6.53c.177 0 .33.065.46.194.129.13.193.282.193.46 0 .053.007.19.02.407a3.428 3.428 0 0 1-.051 1.02.676.676 0 0 1-.203.399.623.623 0 0 1-.419.132h-6.53c-.898 0-1.667.32-2.307.96a3.145 3.145 0 0 0-.959 2.306v14.367c0 .898.32 1.667.96 2.306.639.64 1.408.96 2.306.96h6.367l.235.02.234.06.164.113.142.184.041.275zM32 13.061c0 .354-.13.66-.388.919L20.51 25.082a1.255 1.255 0 0 1-.918.387c-.354 0-.66-.129-.919-.387a1.255 1.255 0 0 1-.387-.919v-5.877H9.143c-.354 0-.66-.13-.919-.388a1.255 1.255 0 0 1-.387-.918V9.143c0-.354.129-.66.387-.919.259-.258.565-.387.919-.387h9.143V1.959c0-.354.129-.66.387-.918.259-.259.565-.388.919-.388.354 0 .66.13.918.388l11.102 11.102c.259.258.388.564.388.918z"/></symbol><symbol viewBox="0 0 32 32" id="times-circle-o" xmlns="http://www.w3.org/2000/svg"><path d="M22.854 19.813l-3.041 3.041a.659.659 0 0 1-.48.209.66.66 0 0 1-.479-.209L16 20l-2.854 2.854a.659.659 0 0 1-.48.209.66.66 0 0 1-.479-.209l-3.041-3.041a.659.659 0 0 1-.209-.48c0-.18.07-.34.209-.479L12 16l-2.854-2.854a.659.659 0 0 1-.209-.48c0-.18.07-.34.209-.479l3.041-3.041a.659.659 0 0 1 .48-.209c.18 0 .34.07.479.209L16 12l2.854-2.854a.659.659 0 0 1 .48-.209c.18 0 .34.07.479.209l3.041 3.041a.659.659 0 0 1 .209.48c0 .18-.07.34-.209.479L20 16l2.854 2.854a.659.659 0 0 1 .209.48c0 .18-.07.34-.209.479zM27.334 16c0-2.056-.508-3.951-1.521-5.688a11.298 11.298 0 0 0-4.125-4.124C19.95 5.173 18.055 4.667 16 4.667c-2.056 0-3.951.507-5.688 1.52a11.298 11.298 0 0 0-4.124 4.125C5.173 12.05 4.667 13.944 4.667 16c0 2.056.507 3.951 1.52 5.688a11.298 11.298 0 0 0 4.125 4.125c1.737 1.013 3.632 1.52 5.688 1.52 2.056 0 3.951-.507 5.688-1.52a11.298 11.298 0 0 0 4.125-4.125c1.013-1.737 1.52-3.632 1.52-5.688zM32 16c0 2.903-.715 5.58-2.146 8.031a15.928 15.928 0 0 1-5.823 5.823C21.58 31.284 18.903 32 16 32c-2.903 0-5.58-.715-8.031-2.146a15.928 15.928 0 0 1-5.823-5.823C.716 21.58 0 18.903 0 16c0-2.903.715-5.58 2.146-8.031a15.928 15.928 0 0 1 5.823-5.823C10.42.716 13.097 0 16 0c2.903 0 5.58.715 8.031 2.146a15.928 15.928 0 0 1 5.823 5.823C31.284 10.42 32 13.097 32 16z"/></symbol><symbol viewBox="0 0 32 35" id="trash" xmlns="http://www.w3.org/2000/svg"><path d="M11.636 28.364v-16a.708.708 0 0 0-.204-.523.708.708 0 0 0-.523-.205H9.455a.708.708 0 0 0-.523.205.708.708 0 0 0-.205.523v16c0 .212.068.386.205.522.136.137.31.205.523.205h1.454a.708.708 0 0 0 .523-.205.708.708 0 0 0 .204-.522zm5.819 0v-16a.708.708 0 0 0-.205-.523.708.708 0 0 0-.523-.205h-1.454a.708.708 0 0 0-.523.205.708.708 0 0 0-.205.523v16c0 .212.069.386.205.522.136.137.31.205.523.205h1.454a.708.708 0 0 0 .523-.205.708.708 0 0 0 .205-.522zm5.818 0v-16a.708.708 0 0 0-.205-.523.708.708 0 0 0-.523-.205h-1.454a.708.708 0 0 0-.523.205.708.708 0 0 0-.204.523v16c0 .212.068.386.204.522.137.137.31.205.523.205h1.454a.708.708 0 0 0 .523-.205.708.708 0 0 0 .205-.522zM10.909 5.818h10.182L20 3.16a.641.641 0 0 0-.386-.25h-7.205a.641.641 0 0 0-.386.25l-1.114 2.66zM32 6.545V8a.708.708 0 0 1-.205.523.708.708 0 0 1-.522.204H29.09v21.546c0 1.257-.356 2.344-1.068 3.261-.712.917-1.568 1.375-2.568 1.375H6.545c-1 0-1.856-.443-2.568-1.33-.712-.886-1.068-1.958-1.068-3.215V8.727H.727a.708.708 0 0 1-.522-.204A.708.708 0 0 1 0 8V6.545c0-.212.068-.386.205-.522a.708.708 0 0 1 .522-.205H7.75l1.59-3.795c.228-.56.637-1.038 1.228-1.432C11.16.197 11.758 0 12.364 0h7.272c.606 0 1.205.197 1.796.59.59.395 1 .872 1.227 1.433l1.591 3.795h7.023c.212 0 .386.068.522.205.137.136.205.31.205.522z"/></symbol><symbol viewBox="0 0 30 34" id="triangle" xmlns="http://www.w3.org/2000/svg"><path d="M5.333 24.774l13.228-7.44L5.333 9.892v14.88zm24.106-7.44L0 33.892V.773l29.44 16.56z"/></symbol><symbol viewBox="0 0 32 26" id="twitter" xmlns="http://www.w3.org/2000/svg"><path d="M32 3.086a13.743 13.743 0 0 1-3.29 3.391c.014.19.021.474.021.853 0 1.76-.257 3.516-.772 5.269a19.042 19.042 0 0 1-2.345 5.046 19.835 19.835 0 0 1-3.746 4.274c-1.448 1.238-3.195 2.227-5.239 2.964-2.044.738-4.23 1.107-6.558 1.107-3.668 0-7.025-.982-10.071-2.944.474.054 1.002.08 1.584.08 3.045 0 5.76-.933 8.142-2.801a6.394 6.394 0 0 1-3.817-1.31c-1.124-.846-1.895-1.925-2.315-3.238.447.067.86.101 1.238.101.583 0 1.158-.074 1.726-.223-1.516-.312-2.771-1.066-3.766-2.264-.995-1.198-1.493-2.589-1.493-4.173v-.08c.921.513 1.91.79 2.965.832a6.55 6.55 0 0 1-2.132-2.335 6.39 6.39 0 0 1-.792-3.127 6.42 6.42 0 0 1 .894-3.31 18.591 18.591 0 0 0 5.98 4.843 18.274 18.274 0 0 0 7.542 2.02 7.285 7.285 0 0 1-.162-1.503c0-1.813.64-3.36 1.919-4.64C18.792.64 20.338 0 22.153 0c1.894 0 3.492.69 4.791 2.071A12.86 12.86 0 0 0 31.107.487c-.501 1.557-1.462 2.762-2.884 3.615A13.068 13.068 0 0 0 32 3.086z"/></symbol><symbol viewBox="0 0 24 32" id="unlock-alt" xmlns="http://www.w3.org/2000/svg"><path d="M22 16c.556 0 1.028.194 1.417.583.389.39.583.861.583 1.417v12c0 .556-.194 1.028-.583 1.417A1.929 1.929 0 0 1 22 32H2a1.929 1.929 0 0 1-1.417-.583A1.929 1.929 0 0 1 0 30V18c0-.556.194-1.028.583-1.417A1.929 1.929 0 0 1 2 16h.667V9.333c0-2.57.913-4.767 2.74-6.593C7.232.913 9.43 0 12 0c2.57 0 4.767.913 6.594 2.74 1.826 1.826 2.74 4.024 2.74 6.593 0 .361-.133.674-.396.938a1.281 1.281 0 0 1-.938.396h-1.333c-.361 0-.674-.132-.938-.396a1.281 1.281 0 0 1-.396-.938c0-1.472-.52-2.729-1.562-3.77C14.729 4.52 13.472 4 12 4s-2.73.52-3.77 1.563C7.186 6.604 6.666 7.86 6.666 9.332V16H22z"/></symbol><symbol viewBox="0 0 32 32" id="user-circle" xmlns="http://www.w3.org/2000/svg"><path d="M27.196 23.91c-.261-1.845-.782-3.377-1.562-4.598-.78-1.22-1.878-1.925-3.295-2.116a8.48 8.48 0 0 1-2.848 2.063A8.433 8.433 0 0 1 16 20a8.433 8.433 0 0 1-3.491-.741 8.48 8.48 0 0 1-2.848-2.063c-1.417.19-2.515.896-3.295 2.116-.78 1.22-1.3 2.753-1.562 4.599a13.69 13.69 0 0 0 4.839 4.24c1.964 1.042 4.083 1.563 6.357 1.563s4.393-.52 6.357-1.562a13.69 13.69 0 0 0 4.84-4.241zm-4.339-12.48c0-1.893-.67-3.51-2.009-4.849-1.34-1.339-2.955-2.009-4.848-2.009-1.893 0-3.509.67-4.848 2.01-1.34 1.339-2.01 2.955-2.01 4.848 0 1.892.67 3.508 2.01 4.848 1.34 1.34 2.955 2.009 4.848 2.009 1.893 0 3.509-.67 4.848-2.01 1.34-1.338 2.01-2.955 2.01-4.847zM32 16c0 2.167-.423 4.235-1.268 6.205-.845 1.97-1.979 3.673-3.402 5.108-1.422 1.434-3.122 2.574-5.098 3.42A15.684 15.684 0 0 1 16 32a15.64 15.64 0 0 1-6.214-1.268c-1.976-.845-3.679-1.982-5.107-3.41-1.429-1.43-2.566-3.132-3.411-5.108A15.64 15.64 0 0 1 0 16c0-2.167.423-4.238 1.268-6.214s1.982-3.679 3.41-5.107C6.109 3.25 7.81 2.113 9.787 1.268A15.64 15.64 0 0 1 16 0c2.167 0 4.238.423 6.214 1.268s3.679 1.982 5.107 3.41c1.429 1.43 2.566 3.132 3.411 5.108A15.64 15.64 0 0 1 32 16z"/></symbol><symbol viewBox="0 0 487 446" id="warning" xmlns="http://www.w3.org/2000/svg"><path fill-rule="evenodd" d="M243.225 313.382c13.7 0 25 11.3 24.4 25.6.6 13-11.3 24.4-24.4 24.4-13.6 0-25-11.4-25-25s11.4-25 25-25zm231.4 88.6c-15.8 27.3-43.9 43.6-75.2 43.6h-312.8c-31.2 0-59.1-16.1-74.7-42.9-15.8-27.1-15.9-59.6-.3-86.9l156.8-271.5c15.5-27.1 43.5-43.4 74.9-43.4 31.4 0 59.4 16.2 74.9 43.5l156.6 271.2c15.6 27 15.5 59.3-.2 86.4zm-34-19.6c8.6-14.9 8.7-32.5.3-47.1l-156.7-271.4c-8.5-14.9-23.8-23.8-40.9-23.8-17.2 0-32.4 8.8-40.9 23.7l-156.8 271.4c-8.6 15-8.5 32.8.1 47.7 8.5 14.7 23.8 23.4 40.8 23.4h312.8c17.2 0 32.6-8.9 41.3-23.9zm-203.6-244.5c11.9-2.8 23.8 2.9 28.9 14.1 1.7 4 2.3 8 2.3 12.5-.6 12.5-1.7 25-2.3 37.5-1.1 19.3-2.3 38.6-3.4 57.9-.6 6.3-.6 12-.6 18.2-.5 10.3-8.5 18.2-18.7 18.2s-18.1-7.4-18.7-17.6c-1.7-30.1-3.4-59.6-5.1-89.7-.6-7.9-1.1-15.9-1.7-23.8 0-13.1 7.4-23.9 19.3-27.3z"/></symbol><symbol viewBox="0 0 32 38" id="xing" xmlns="http://www.w3.org/2000/svg"><path d="M13.559 14.921c-.152.273-2.097 3.725-5.837 10.357-.409.696-.901 1.044-1.476 1.044H.818c-.318 0-.553-.128-.704-.386-.152-.257-.152-.53 0-.817l5.745-10.175c.016 0 .016-.008 0-.023L2.203 8.585c-.182-.333-.19-.613-.023-.84.137-.228.379-.341.727-.341h5.428c.606 0 1.105.34 1.499 1.022l3.725 6.495zM31.864.341c.166.242.166.522 0 .84L19.872 22.393v.023l7.631 13.967c.167.303.174.583.023.84-.152.228-.394.341-.727.341h-5.428c-.636 0-1.135-.34-1.499-1.022l-7.699-14.126 12.06-21.394C24.61.341 25.096 0 25.686 0h5.474c.333 0 .567.114.704.34z"/></symbol><symbol viewBox="0 0 27 32" id="youtube" xmlns="http://www.w3.org/2000/svg"><path d="M16.725 22.04v3.738c0 .791-.23 1.187-.691 1.187-.272 0-.538-.13-.797-.39v-5.332c.26-.26.525-.39.797-.39.46 0 .69.395.69 1.187zm5.988.018v.814h-1.594v-.814c0-.804.265-1.205.797-1.205.531 0 .797.401.797 1.205zM5.599 18.195h1.895V16.53H1.967v1.665h1.86v10.081h1.772v-10.08zM10.7 28.276h1.577v-8.752H10.7v6.697c-.354.496-.691.744-1.01.744-.212 0-.336-.124-.372-.372-.012-.035-.018-.242-.018-.62v-6.449H7.725v6.927c0 .579.047 1.01.141 1.294.142.437.485.655 1.028.655.567 0 1.17-.36 1.807-1.08v.956zm7.6-2.622v-3.49c0-.862-.053-1.447-.159-1.754-.2-.662-.62-.992-1.258-.992-.59 0-1.14.319-1.647.956V16.53H13.66v11.746h1.577v-.85c.531.65 1.08.974 1.647.974.638 0 1.057-.325 1.258-.974.106-.32.16-.91.16-1.772zm5.989-.177v-.23h-1.612c0 .602-.012.962-.036 1.08-.083.425-.319.638-.709.638-.543 0-.814-.407-.814-1.222V24.2h3.17v-1.825c0-.933-.159-1.618-.478-2.055-.46-.602-1.086-.903-1.878-.903-.803 0-1.435.3-1.895.903-.33.437-.496 1.122-.496 2.055v3.065c0 .934.171 1.619.514 2.056.46.602 1.098.903 1.913.903.85 0 1.488-.313 1.913-.939.213-.319.337-.638.372-.957.024-.106.036-.448.036-1.027zM13.518 9.3V5.58c0-.815-.254-1.223-.762-1.223s-.762.408-.762 1.223V9.3c0 .827.254 1.24.762 1.24s.762-.413.762-1.24zm12.738 13.306c0 2.764-.153 4.83-.46 6.2a3.365 3.365 0 0 1-1.028 1.755 3.1 3.1 0 0 1-1.807.815c-2.173.248-5.45.372-9.833.372-4.382 0-7.66-.124-9.833-.372a3.14 3.14 0 0 1-1.816-.815 3.238 3.238 0 0 1-1.018-1.754C.154 27.485 0 25.418 0 22.607c0-2.764.154-4.831.46-6.201a3.365 3.365 0 0 1 1.028-1.754 3.213 3.213 0 0 1 1.825-.833c2.162-.236 5.433-.354 9.815-.354s7.66.118 9.833.354a3.24 3.24 0 0 1 1.816.833 3.238 3.238 0 0 1 1.019 1.754c.307 1.323.46 3.39.46 6.2zM8.575 0h1.807L8.238 7.069v4.801H6.467v-4.8C6.3 6.195 5.94 4.943 5.386 3.313 4.949 2.096 4.565.993 4.234 0h1.878L7.37 4.66 8.575 0zm6.555 5.9V9c0 .957-.165 1.654-.496 2.09-.449.603-1.075.904-1.878.904-.791 0-1.411-.3-1.86-.903-.33-.45-.496-1.146-.496-2.09V5.9c0-.945.165-1.636.496-2.073.449-.603 1.069-.904 1.86-.904.803 0 1.43.301 1.878.904.33.437.496 1.128.496 2.073zm5.935-2.87v8.84h-1.612v-.974c-.626.732-1.234 1.098-1.825 1.098-.543 0-.891-.218-1.045-.655-.094-.284-.142-.727-.142-1.329V3.03h1.612v6.502c0 .39.006.596.018.62.036.26.16.39.372.39.32 0 .656-.254 1.01-.762V3.03h1.612z"/></symbol></svg>